<?xml version="1.0" encoding="UTF-8" standalone="no"?>
<!DOCTYPE svg PUBLIC "-//W3C//DTD SVG 1.1//EN"
 "http://www.w3.org/Graphics/SVG/1.1/DTD/svg11.dtd">
<!-- Generated by graphviz version 2.43.0 (0)
 -->
<!-- Title: linko Pages: 1 -->
<svg width="1209pt" height="1007pt"
 viewBox="0.00 0.00 1209.00 1007.00" xmlns="http://www.w3.org/2000/svg" xmlns:xlink="http://www.w3.org/1999/xlink">
<g id="graph0" class="graph" transform="scale(1 1) rotate(0) translate(4 1003)">
<title>linko</title>
<polygon fill="white" stroke="transparent" points="-4,4 -4,-1003 1205,-1003 1205,4 -4,4"/>
<g id="clust1" class="cluster">
<title>cluster_L</title>
<polygon fill="none" stroke="black" points="8,-822 8,-991 620,-991 620,-822 8,-822"/>
</g>
<!-- File: linko -->
<g id="node1" class="node">
<title>File: linko</title>
<g id="a_node1"><a xlink:title="linko">
<polygon fill="#f8f8f8" stroke="black" points="611.5,-983 16.5,-983 16.5,-830 611.5,-830 611.5,-983"/>
<text text-anchor="start" x="24.5" y="-966.2" font-family="Times,serif" font-size="16.00">File: linko</text>
<text text-anchor="start" x="24.5" y="-948.2" font-family="Times,serif" font-size="16.00">Build ID: ea645362d10ea56daa90ad5730d77c2eebb235bd</text>
<text text-anchor="start" x="24.5" y="-930.2" font-family="Times,serif" font-size="16.00">Type: inuse_space</text>
<text text-anchor="start" x="24.5" y="-912.2" font-family="Times,serif" font-size="16.00">Time: 2026&#45;04&#45;17 20:14:01 &#45;04</text>
<text text-anchor="start" x="24.5" y="-894.2" font-family="Times,serif" font-size="16.00">Duration: 30.02s, Total samples = 4170.90kB </text>
<text text-anchor="start" x="24.5" y="-876.2" font-family="Times,serif" font-size="16.00">Showing nodes accounting for 3146.88kB, 75.45% of 4170.90kB total</text>
<text text-anchor="start" x="24.5" y="-839.2" font-family="Times,serif" font-size="16.00">See https://git.io/JfYMW for how to read the graph</text>
</a>
</g>
</g>
<!-- N1 -->
<g id="node1" class="node">
<title>N1</title>
<g id="a_node1"><a xlink:title="net/http.HandlerFunc.ServeHTTP (3658.89kB)">
<polygon fill="#edd6d5" stroke="#b20600" points="746.5,-679.5 629.5,-679.5 629.5,-635.5 746.5,-635.5 746.5,-679.5"/>
<text text-anchor="middle" x="688" y="-669.1" font-family="Times,serif" font-size="8.00">http</text>
<text text-anchor="middle" x="688" y="-660.1" font-family="Times,serif" font-size="8.00">HandlerFunc</text>
<text text-anchor="middle" x="688" y="-651.1" font-family="Times,serif" font-size="8.00">ServeHTTP</text>
<text text-anchor="middle" x="688" y="-642.1" font-family="Times,serif" font-size="8.00">0 of 3658.89kB (87.72%)</text>
</a>
</g>
</g>
<!-- N6 -->
<g id="node6" class="node">
<title>N6</title>
<g id="a_node6"><a xlink:title="main.(*server).handlerRedirect (3658.89kB)">
<polygon fill="#edd6d5" stroke="#b20600" points="431.5,-566.5 314.5,-566.5 314.5,-522.5 431.5,-522.5 431.5,-566.5"/>
<text text-anchor="middle" x="373" y="-556.1" font-family="Times,serif" font-size="8.00">main</text>
<text text-anchor="middle" x="373" y="-547.1" font-family="Times,serif" font-size="8.00">(*server)</text>
<text text-anchor="middle" x="373" y="-538.1" font-family="Times,serif" font-size="8.00">handlerRedirect</text>
<text text-anchor="middle" x="373" y="-529.1" font-family="Times,serif" font-size="8.00">0 of 3658.89kB (87.72%)</text>
</a>
</g>
</g>
<!-- N1&#45;&gt;N6 -->
<g id="edge9" class="edge">
<title>N1&#45;&gt;N6</title>
<g id="a_edge9"><a xlink:title="net/http.HandlerFunc.ServeHTTP &#45;&gt; main.(*server).handlerRedirect (3658.89kB)">
<path fill="none" stroke="#b20600" stroke-width="5" d="M629.32,-653.45C558.16,-648.73 443.47,-637.49 409,-613 396.45,-604.09 387.89,-589.41 382.27,-576.02"/>
<polygon fill="#b20600" stroke="#b20600" stroke-width="5" points="386.33,-574.39 378.69,-566.59 378.15,-577.5 386.33,-574.39"/>
</a>
</g>
<g id="a_edge9&#45;label"><a xlink:title="net/http.HandlerFunc.ServeHTTP &#45;&gt; main.(*server).handlerRedirect (3658.89kB)">
<text text-anchor="middle" x="450" y="-601.8" font-family="Times,serif" font-size="14.00"> 3658.89kB</text>
</a>
</g>
</g>
<!-- N8 -->
<g id="node8" class="node">
<title>N8</title>
<g id="a_node8"><a xlink:title="main.newServer.metricsMiddleware.func5 (3658.89kB)">
<polygon fill="#edd6d5" stroke="#b20600" points="615.5,-571 498.5,-571 498.5,-518 615.5,-518 615.5,-571"/>
<text text-anchor="middle" x="557" y="-560.6" font-family="Times,serif" font-size="8.00">main</text>
<text text-anchor="middle" x="557" y="-551.6" font-family="Times,serif" font-size="8.00">newServer</text>
<text text-anchor="middle" x="557" y="-542.6" font-family="Times,serif" font-size="8.00">metricsMiddleware</text>
<text text-anchor="middle" x="557" y="-533.6" font-family="Times,serif" font-size="8.00">func5</text>
<text text-anchor="middle" x="557" y="-524.6" font-family="Times,serif" font-size="8.00">0 of 3658.89kB (87.72%)</text>
</a>
</g>
</g>
<!-- N1&#45;&gt;N8 -->
<g id="edge10" class="edge">
<title>N1&#45;&gt;N8</title>
<g id="a_edge10"><a xlink:title="net/http.HandlerFunc.ServeHTTP &#45;&gt; main.newServer.metricsMiddleware.func5 (3658.89kB)">
<path fill="none" stroke="#b20600" stroke-width="5" d="M629.11,-650.89C579.84,-644.83 515.09,-633.22 499,-613 489.68,-601.29 495.72,-588.77 506.83,-577.74"/>
<polygon fill="#b20600" stroke="#b20600" stroke-width="5" points="509.75,-581 514.31,-571.08 503.93,-574.46 509.75,-581"/>
</a>
</g>
<g id="a_edge10&#45;label"><a xlink:title="net/http.HandlerFunc.ServeHTTP &#45;&gt; main.newServer.metricsMiddleware.func5 (3658.89kB)">
<text text-anchor="middle" x="540" y="-601.8" font-family="Times,serif" font-size="14.00"> 3658.89kB</text>
</a>
</g>
</g>
<!-- N9 -->
<g id="node9" class="node">
<title>N9</title>
<g id="a_node9"><a xlink:title="main.newServer.newServer.requestHeader.func1.func4 (3658.89kB)">
<polygon fill="#edd6d5" stroke="#b20600" points="772.5,-580 655.5,-580 655.5,-509 772.5,-509 772.5,-580"/>
<text text-anchor="middle" x="714" y="-569.6" font-family="Times,serif" font-size="8.00">main</text>
<text text-anchor="middle" x="714" y="-560.6" font-family="Times,serif" font-size="8.00">newServer</text>
<text text-anchor="middle" x="714" y="-551.6" font-family="Times,serif" font-size="8.00">newServer</text>
<text text-anchor="middle" x="714" y="-542.6" font-family="Times,serif" font-size="8.00">requestHeader</text>
<text text-anchor="middle" x="714" y="-533.6" font-family="Times,serif" font-size="8.00">func1</text>
<text text-anchor="middle" x="714" y="-524.6" font-family="Times,serif" font-size="8.00">func4</text>
<text text-anchor="middle" x="714" y="-515.6" font-family="Times,serif" font-size="8.00">0 of 3658.89kB (87.72%)</text>
</a>
</g>
</g>
<!-- N1&#45;&gt;N9 -->
<g id="edge11" class="edge">
<title>N1&#45;&gt;N9</title>
<g id="a_edge11"><a xlink:title="net/http.HandlerFunc.ServeHTTP &#45;&gt; main.newServer.newServer.requestHeader.func1.func4 (3658.89kB)">
<path fill="none" stroke="#b20600" stroke-width="5" d="M683.88,-635.34C682.45,-624.09 681.88,-610.11 685,-598 685.73,-595.16 686.65,-592.32 687.71,-589.5"/>
<polygon fill="#b20600" stroke="#b20600" stroke-width="5" points="691.84,-590.98 691.78,-580.06 683.8,-587.52 691.84,-590.98"/>
</a>
</g>
<g id="a_edge11&#45;label"><a xlink:title="net/http.HandlerFunc.ServeHTTP &#45;&gt; main.newServer.newServer.requestHeader.func1.func4 (3658.89kB)">
<text text-anchor="middle" x="726" y="-601.8" font-family="Times,serif" font-size="14.00"> 3658.89kB</text>
</a>
</g>
</g>
<!-- N10 -->
<g id="node10" class="node">
<title>N10</title>
<g id="a_node10"><a xlink:title="main.newServer.newServer.requestLogger.func2.func3 (3658.89kB)">
<polygon fill="#edd6d5" stroke="#b20600" points="956.5,-580 839.5,-580 839.5,-509 956.5,-509 956.5,-580"/>
<text text-anchor="middle" x="898" y="-569.6" font-family="Times,serif" font-size="8.00">main</text>
<text text-anchor="middle" x="898" y="-560.6" font-family="Times,serif" font-size="8.00">newServer</text>
<text text-anchor="middle" x="898" y="-551.6" font-family="Times,serif" font-size="8.00">newServer</text>
<text text-anchor="middle" x="898" y="-542.6" font-family="Times,serif" font-size="8.00">requestLogger</text>
<text text-anchor="middle" x="898" y="-533.6" font-family="Times,serif" font-size="8.00">func2</text>
<text text-anchor="middle" x="898" y="-524.6" font-family="Times,serif" font-size="8.00">func3</text>
<text text-anchor="middle" x="898" y="-515.6" font-family="Times,serif" font-size="8.00">0 of 3658.89kB (87.72%)</text>
</a>
</g>
</g>
<!-- N1&#45;&gt;N10 -->
<g id="edge12" class="edge">
<title>N1&#45;&gt;N10</title>
<g id="a_edge12"><a xlink:title="net/http.HandlerFunc.ServeHTTP &#45;&gt; main.newServer.newServer.requestLogger.func2.func3 (3658.89kB)">
<path fill="none" stroke="#b20600" stroke-width="5" d="M746.86,-653.47C782.98,-648.94 828.41,-638.18 861,-613 869.09,-606.75 875.65,-598.21 880.87,-589.3"/>
<polygon fill="#b20600" stroke="#b20600" stroke-width="5" points="884.8,-591.23 885.65,-580.34 877.08,-587.1 884.8,-591.23"/>
</a>
</g>
<g id="a_edge12&#45;label"><a xlink:title="net/http.HandlerFunc.ServeHTTP &#45;&gt; main.newServer.newServer.requestLogger.func2.func3 (3658.89kB)">
<text text-anchor="middle" x="914" y="-601.8" font-family="Times,serif" font-size="14.00"> 3658.89kB</text>
</a>
</g>
</g>
<!-- N2 -->
<g id="node2" class="node">
<title>N2</title>
<g id="a_node2"><a xlink:title="internal/bytealg.MakeNoZero (3658.89kB)">
<polygon fill="#edd6d5" stroke="#b20600" points="504,-173 242,-173 242,-87 504,-87 504,-173"/>
<text text-anchor="middle" x="373" y="-149.8" font-family="Times,serif" font-size="24.00">bytealg</text>
<text text-anchor="middle" x="373" y="-123.8" font-family="Times,serif" font-size="24.00">MakeNoZero</text>
<text text-anchor="middle" x="373" y="-97.8" font-family="Times,serif" font-size="24.00">3658.89kB (87.72%)</text>
</a>
</g>
</g>
<!-- NN2_0 -->
<g id="NN2_0" class="node">
<title>NN2_0</title>
<g id="a_NN2_0"><a xlink:title="3658.89kB">
<polygon fill="#f8f8f8" stroke="black" points="400,-36 350,-36 346,-32 346,0 396,0 400,-4 400,-36"/>
<polyline fill="none" stroke="black" points="396,-32 346,-32 "/>
<polyline fill="none" stroke="black" points="396,-32 396,0 "/>
<polyline fill="none" stroke="black" points="396,-32 400,-36 "/>
<text text-anchor="middle" x="373" y="-16.1" font-family="Times,serif" font-size="8.00">21.25kB</text>
</a>
</g>
</g>
<!-- N2&#45;&gt;NN2_0 -->
<g id="edge1" class="edge">
<title>N2&#45;&gt;NN2_0</title>
<g id="a_edge1"><a xlink:title="3658.89kB">
<path fill="none" stroke="black" d="M373,-86.79C373,-73.2 373,-58.5 373,-46.28"/>
<polygon fill="black" stroke="black" points="376.5,-46.27 373,-36.27 369.5,-46.27 376.5,-46.27"/>
</a>
</g>
<g id="a_edge1&#45;label"><a xlink:title="3658.89kB">
<text text-anchor="middle" x="414" y="-57.8" font-family="Times,serif" font-size="14.00"> 3658.89kB</text>
</a>
</g>
</g>
<!-- N3 -->
<g id="node3" class="node">
<title>N3</title>
<g id="a_node3"><a xlink:title="net/http.(*conn).serve (3658.89kB)">
<polygon fill="#edd6d5" stroke="#b20600" points="746.5,-928.5 629.5,-928.5 629.5,-884.5 746.5,-884.5 746.5,-928.5"/>
<text text-anchor="middle" x="688" y="-918.1" font-family="Times,serif" font-size="8.00">http</text>
<text text-anchor="middle" x="688" y="-909.1" font-family="Times,serif" font-size="8.00">(*conn)</text>
<text text-anchor="middle" x="688" y="-900.1" font-family="Times,serif" font-size="8.00">serve</text>
<text text-anchor="middle" x="688" y="-891.1" font-family="Times,serif" font-size="8.00">0 of 3658.89kB (87.72%)</text>
</a>
</g>
</g>
<!-- N12 -->
<g id="node12" class="node">
<title>N12</title>
<g id="a_node12"><a xlink:title="net/http.serverHandler.ServeHTTP (3658.89kB)">
<polygon fill="#edd6d5" stroke="#b20600" points="746.5,-779 629.5,-779 629.5,-735 746.5,-735 746.5,-779"/>
<text text-anchor="middle" x="688" y="-768.6" font-family="Times,serif" font-size="8.00">http</text>
<text text-anchor="middle" x="688" y="-759.6" font-family="Times,serif" font-size="8.00">serverHandler</text>
<text text-anchor="middle" x="688" y="-750.6" font-family="Times,serif" font-size="8.00">ServeHTTP</text>
<text text-anchor="middle" x="688" y="-741.6" font-family="Times,serif" font-size="8.00">0 of 3658.89kB (87.72%)</text>
</a>
</g>
</g>
<!-- N3&#45;&gt;N12 -->
<g id="edge8" class="edge">
<title>N3&#45;&gt;N12</title>
<g id="a_edge8"><a xlink:title="net/http.(*conn).serve &#45;&gt; net/http.serverHandler.ServeHTTP (3658.89kB)">
<path fill="none" stroke="#b20600" stroke-width="5" d="M688,-884.37C688,-859.5 688,-817.99 688,-789.37"/>
<polygon fill="#b20600" stroke="#b20600" stroke-width="5" points="692.38,-789.09 688,-779.09 683.63,-789.09 692.38,-789.09"/>
</a>
</g>
<g id="a_edge8&#45;label"><a xlink:title="net/http.(*conn).serve &#45;&gt; net/http.serverHandler.ServeHTTP (3658.89kB)">
<text text-anchor="middle" x="729" y="-800.8" font-family="Times,serif" font-size="14.00"> 3658.89kB</text>
</a>
</g>
</g>
<!-- N4 -->
<g id="node4" class="node">
<title>N4</title>
<g id="a_node4"><a xlink:title="os/signal.NotifyContext (&#45;512.01kB)">
<polygon fill="#e5edde" stroke="#78b244" points="1201,-684 1043,-684 1043,-631 1201,-631 1201,-684"/>
<text text-anchor="middle" x="1122" y="-668.8" font-family="Times,serif" font-size="14.00">signal</text>
<text text-anchor="middle" x="1122" y="-653.8" font-family="Times,serif" font-size="14.00">NotifyContext</text>
<text text-anchor="middle" x="1122" y="-638.8" font-family="Times,serif" font-size="14.00">&#45;512.01kB (12.28%)</text>
</a>
</g>
</g>
<!-- NN4_0 -->
<g id="NN4_0" class="node">
<title>NN4_0</title>
<g id="a_NN4_0"><a xlink:title="&#45;512.01kB">
<polygon fill="#f8f8f8" stroke="black" points="1149,-562.5 1099,-562.5 1095,-558.5 1095,-526.5 1145,-526.5 1149,-530.5 1149,-562.5"/>
<polyline fill="none" stroke="black" points="1145,-558.5 1095,-558.5 "/>
<polyline fill="none" stroke="black" points="1145,-558.5 1145,-526.5 "/>
<polyline fill="none" stroke="black" points="1145,-558.5 1149,-562.5 "/>
<text text-anchor="middle" x="1122" y="-542.6" font-family="Times,serif" font-size="8.00">16B</text>
</a>
</g>
</g>
<!-- N4&#45;&gt;NN4_0 -->
<g id="edge2" class="edge">
<title>N4&#45;&gt;NN4_0</title>
<g id="a_edge2"><a xlink:title="&#45;512.01kB">
<path fill="none" stroke="black" d="M1122,-630.76C1122,-613.47 1122,-590.71 1122,-573.05"/>
<polygon fill="black" stroke="black" points="1125.5,-572.81 1122,-562.81 1118.5,-572.81 1125.5,-572.81"/>
</a>
</g>
<g id="a_edge2&#45;label"><a xlink:title="&#45;512.01kB">
<text text-anchor="middle" x="1161" y="-601.8" font-family="Times,serif" font-size="14.00"> &#45;512.01kB</text>
</a>
</g>
</g>
<!-- N5 -->
<g id="node5" class="node">
<title>N5</title>
<g id="a_node5"><a xlink:title="runtime.main (&#45;512.01kB)">
<polygon fill="#e5edde" stroke="#78b244" points="1179.5,-924.5 1064.5,-924.5 1064.5,-888.5 1179.5,-888.5 1179.5,-924.5"/>
<text text-anchor="middle" x="1122" y="-913.6" font-family="Times,serif" font-size="8.00">runtime</text>
<text text-anchor="middle" x="1122" y="-904.6" font-family="Times,serif" font-size="8.00">main</text>
<text text-anchor="middle" x="1122" y="-895.6" font-family="Times,serif" font-size="8.00">0 of &#45;512.01kB (12.28%)</text>
</a>
</g>
</g>
<!-- N7 -->
<g id="node7" class="node">
<title>N7</title>
<g id="a_node7"><a xlink:title="main.main (&#45;512.01kB)">
<polygon fill="#e5edde" stroke="#78b244" points="1179.5,-775 1064.5,-775 1064.5,-739 1179.5,-739 1179.5,-775"/>
<text text-anchor="middle" x="1122" y="-764.1" font-family="Times,serif" font-size="8.00">main</text>
<text text-anchor="middle" x="1122" y="-755.1" font-family="Times,serif" font-size="8.00">main</text>
<text text-anchor="middle" x="1122" y="-746.1" font-family="Times,serif" font-size="8.00">0 of &#45;512.01kB (12.28%)</text>
</a>
</g>
</g>
<!-- N5&#45;&gt;N7 -->
<g id="edge18" class="edge">
<title>N5&#45;&gt;N7</title>
<g id="a_edge18"><a xlink:title="runtime.main &#45;&gt; main.main (&#45;512.01kB)">
<path fill="none" stroke="#78b244" d="M1122,-888.29C1122,-862.98 1122,-815.46 1122,-785.34"/>
<polygon fill="#78b244" stroke="#78b244" points="1125.5,-785.1 1122,-775.1 1118.5,-785.1 1125.5,-785.1"/>
</a>
</g>
<g id="a_edge18&#45;label"><a xlink:title="runtime.main &#45;&gt; main.main (&#45;512.01kB)">
<text text-anchor="middle" x="1161" y="-800.8" font-family="Times,serif" font-size="14.00"> &#45;512.01kB</text>
</a>
</g>
</g>
<!-- N15 -->
<g id="node15" class="node">
<title>N15</title>
<g id="a_node15"><a xlink:title="strings.Repeat (3658.89kB)">
<polygon fill="#edd6d5" stroke="#b20600" points="431.5,-454 314.5,-454 314.5,-418 431.5,-418 431.5,-454"/>
<text text-anchor="middle" x="373" y="-443.1" font-family="Times,serif" font-size="8.00">strings</text>
<text text-anchor="middle" x="373" y="-434.1" font-family="Times,serif" font-size="8.00">Repeat</text>
<text text-anchor="middle" x="373" y="-425.1" font-family="Times,serif" font-size="8.00">0 of 3658.89kB (87.72%)</text>
</a>
</g>
</g>
<!-- N6&#45;&gt;N15 -->
<g id="edge3" class="edge">
<title>N6&#45;&gt;N15</title>
<g id="a_edge3"><a xlink:title="main.(*server).handlerRedirect &#45;&gt; strings.Repeat (3658.89kB)">
<path fill="none" stroke="#b20600" stroke-width="5" d="M373,-522.46C373,-505.81 373,-482.45 373,-464.35"/>
<polygon fill="#b20600" stroke="#b20600" stroke-width="5" points="377.38,-464.14 373,-454.14 368.63,-464.14 377.38,-464.14"/>
</a>
</g>
<g id="a_edge3&#45;label"><a xlink:title="main.(*server).handlerRedirect &#45;&gt; strings.Repeat (3658.89kB)">
<text text-anchor="middle" x="414" y="-479.8" font-family="Times,serif" font-size="14.00"> 3658.89kB</text>
</a>
</g>
</g>
<!-- N7&#45;&gt;N4 -->
<g id="edge17" class="edge">
<title>N7&#45;&gt;N4</title>
<g id="a_edge17"><a xlink:title="main.main &#45;&gt; os/signal.NotifyContext (&#45;512.01kB)">
<path fill="none" stroke="#78b244" d="M1122,-738.57C1122,-726.29 1122,-709.4 1122,-694.3"/>
<polygon fill="#78b244" stroke="#78b244" points="1125.5,-694.22 1122,-684.22 1118.5,-694.22 1125.5,-694.22"/>
</a>
</g>
<g id="a_edge17&#45;label"><a xlink:title="main.main &#45;&gt; os/signal.NotifyContext (&#45;512.01kB)">
<text text-anchor="middle" x="1161" y="-705.8" font-family="Times,serif" font-size="14.00"> &#45;512.01kB</text>
</a>
</g>
</g>
<!-- N8&#45;&gt;N1 -->
<g id="edge4" class="edge">
<title>N8&#45;&gt;N1</title>
<g id="a_edge4"><a xlink:title="main.newServer.metricsMiddleware.func5 &#45;&gt; net/http.HandlerFunc.ServeHTTP (3658.89kB)">
<path fill="none" stroke="#b20600" stroke-width="5" d="M567.67,-571.08C574.45,-584.88 584.34,-601.42 597,-613 604.27,-619.65 612.74,-625.47 621.52,-630.52"/>
<polygon fill="#b20600" stroke="#b20600" stroke-width="5" points="619.51,-634.4 630.39,-635.31 623.67,-626.71 619.51,-634.4"/>
</a>
</g>
<g id="a_edge4&#45;label"><a xlink:title="main.newServer.metricsMiddleware.func5 &#45;&gt; net/http.HandlerFunc.ServeHTTP (3658.89kB)">
<text text-anchor="middle" x="638" y="-601.8" font-family="Times,serif" font-size="14.00"> 3658.89kB</text>
</a>
</g>
</g>
<!-- N9&#45;&gt;N1 -->
<g id="edge5" class="edge">
<title>N9&#45;&gt;N1</title>
<g id="a_edge5"><a xlink:title="main.newServer.newServer.requestHeader.func1.func4 &#45;&gt; net/http.HandlerFunc.ServeHTTP (3658.89kB)">
<path fill="none" stroke="#b20600" stroke-width="5" d="M765.06,-580.33C773.63,-590.39 777.83,-601.71 771,-613 766.91,-619.75 761.4,-625.51 755.14,-630.4"/>
<polygon fill="#b20600" stroke="#b20600" stroke-width="5" points="752.58,-626.85 746.86,-636.15 757.57,-634.04 752.58,-626.85"/>
</a>
</g>
<g id="a_edge5&#45;label"><a xlink:title="main.newServer.newServer.requestHeader.func1.func4 &#45;&gt; net/http.HandlerFunc.ServeHTTP (3658.89kB)">
<text text-anchor="middle" x="816" y="-601.8" font-family="Times,serif" font-size="14.00"> 3658.89kB</text>
</a>
</g>
</g>
<!-- N11 -->
<g id="node11" class="node">
<title>N11</title>
<g id="a_node11"><a xlink:title="net/http.(*ServeMux).ServeHTTP (3658.89kB)">
<polygon fill="#edd6d5" stroke="#b20600" points="1004.5,-458 887.5,-458 887.5,-414 1004.5,-414 1004.5,-458"/>
<text text-anchor="middle" x="946" y="-447.6" font-family="Times,serif" font-size="8.00">http</text>
<text text-anchor="middle" x="946" y="-438.6" font-family="Times,serif" font-size="8.00">(*ServeMux)</text>
<text text-anchor="middle" x="946" y="-429.6" font-family="Times,serif" font-size="8.00">ServeHTTP</text>
<text text-anchor="middle" x="946" y="-420.6" font-family="Times,serif" font-size="8.00">0 of 3658.89kB (87.72%)</text>
</a>
</g>
</g>
<!-- N10&#45;&gt;N11 -->
<g id="edge6" class="edge">
<title>N10&#45;&gt;N11</title>
<g id="a_edge6"><a xlink:title="main.newServer.newServer.requestLogger.func2.func3 &#45;&gt; net/http.(*ServeMux).ServeHTTP (3658.89kB)">
<path fill="none" stroke="#b20600" stroke-width="5" d="M892.98,-508.9C892.82,-497.93 894.19,-486.04 899,-476 900.75,-472.34 903.03,-468.9 905.64,-465.7"/>
<polygon fill="#b20600" stroke="#b20600" stroke-width="5" points="909,-468.52 912.7,-458.24 902.65,-462.5 909,-468.52"/>
</a>
</g>
<g id="a_edge6&#45;label"><a xlink:title="main.newServer.newServer.requestLogger.func2.func3 &#45;&gt; net/http.(*ServeMux).ServeHTTP (3658.89kB)">
<text text-anchor="middle" x="940" y="-479.8" font-family="Times,serif" font-size="14.00"> 3658.89kB</text>
</a>
</g>
</g>
<!-- N11&#45;&gt;N1 -->
<g id="edge7" class="edge">
<title>N11&#45;&gt;N1</title>
<g id="a_edge7"><a xlink:title="net/http.(*ServeMux).ServeHTTP &#45;&gt; net/http.HandlerFunc.ServeHTTP (3658.89kB)">
<path fill="none" stroke="#b20600" stroke-width="5" d="M969.91,-458.15C974.44,-463.48 978.53,-469.54 981,-476 1003.05,-533.59 1003.68,-570.49 959,-613 930.7,-639.92 827.51,-650.2 756.96,-654.11"/>
<polygon fill="#b20600" stroke="#b20600" stroke-width="5" points="756.55,-649.75 746.79,-654.65 757.01,-658.49 756.55,-649.75"/>
</a>
</g>
<g id="a_edge7&#45;label"><a xlink:title="net/http.(*ServeMux).ServeHTTP &#45;&gt; net/http.HandlerFunc.ServeHTTP (3658.89kB)">
<text text-anchor="middle" x="1036" y="-540.8" font-family="Times,serif" font-size="14.00"> 3658.89kB</text>
</a>
</g>
</g>
<!-- N12&#45;&gt;N1 -->
<g id="edge13" class="edge">
<title>N12&#45;&gt;N1</title>
<g id="a_edge13"><a xlink:title="net/http.serverHandler.ServeHTTP &#45;&gt; net/http.HandlerFunc.ServeHTTP (3658.89kB)">
<path fill="none" stroke="#b20600" stroke-width="5" d="M688,-734.84C688,-721.68 688,-704.52 688,-689.81"/>
<polygon fill="#b20600" stroke="#b20600" stroke-width="5" points="692.38,-689.61 688,-679.61 683.63,-689.61 692.38,-689.61"/>
</a>
</g>
<g id="a_edge13&#45;label"><a xlink:title="net/http.serverHandler.ServeHTTP &#45;&gt; net/http.HandlerFunc.ServeHTTP (3658.89kB)">
<text text-anchor="middle" x="729" y="-705.8" font-family="Times,serif" font-size="14.00"> 3658.89kB</text>
</a>
</g>
</g>
<!-- N13 -->
<g id="node13" class="node">
<title>N13</title>
<g id="a_node13"><a xlink:title="strings.(*Builder).Grow (3658.89kB)">
<polygon fill="#edd6d5" stroke="#b20600" points="431.5,-363 314.5,-363 314.5,-319 431.5,-319 431.5,-363"/>
<text text-anchor="middle" x="373" y="-352.6" font-family="Times,serif" font-size="8.00">strings</text>
<text text-anchor="middle" x="373" y="-343.6" font-family="Times,serif" font-size="8.00">(*Builder)</text>
<text text-anchor="middle" x="373" y="-334.6" font-family="Times,serif" font-size="8.00">Grow</text>
<text text-anchor="middle" x="373" y="-325.6" font-family="Times,serif" font-size="8.00">0 of 3658.89kB (87.72%)</text>
</a>
</g>
</g>
<!-- N14 -->
<g id="node14" class="node">
<title>N14</title>
<g id="a_node14"><a xlink:title="strings.(*Builder).grow (3658.89kB)">
<polygon fill="#edd6d5" stroke="#b20600" points="431.5,-268 314.5,-268 314.5,-224 431.5,-224 431.5,-268"/>
<text text-anchor="middle" x="373" y="-257.6" font-family="Times,serif" font-size="8.00">strings</text>
<text text-anchor="middle" x="373" y="-248.6" font-family="Times,serif" font-size="8.00">(*Builder)</text>
<text text-anchor="middle" x="373" y="-239.6" font-family="Times,serif" font-size="8.00">grow</text>
<text text-anchor="middle" x="373" y="-230.6" font-family="Times,serif" font-size="8.00">0 of 3658.89kB (87.72%)</text>
</a>
</g>
</g>
<!-- N13&#45;&gt;N14 -->
<g id="edge14" class="edge">
<title>N13&#45;&gt;N14</title>
<g id="a_edge14"><a xlink:title="strings.(*Builder).Grow &#45;&gt; strings.(*Builder).grow (3658.89kB)">
<path fill="none" stroke="#b20600" stroke-width="5" d="M373,-318.9C373,-306.89 373,-291.62 373,-278.24"/>
<polygon fill="#b20600" stroke="#b20600" stroke-width="5" points="377.38,-278.02 373,-268.02 368.63,-278.02 377.38,-278.02"/>
</a>
</g>
<g id="a_edge14&#45;label"><a xlink:title="strings.(*Builder).Grow &#45;&gt; strings.(*Builder).grow (3658.89kB)">
<text text-anchor="middle" x="414" y="-289.8" font-family="Times,serif" font-size="14.00"> 3658.89kB</text>
</a>
</g>
</g>
<!-- N14&#45;&gt;N2 -->
<g id="edge15" class="edge">
<title>N14&#45;&gt;N2</title>
<g id="a_edge15"><a xlink:title="strings.(*Builder).grow &#45;&gt; internal/bytealg.MakeNoZero (3658.89kB)">
<path fill="none" stroke="#b20600" stroke-width="5" d="M373,-223.82C373,-212.43 373,-197.81 373,-183.57"/>
<polygon fill="#b20600" stroke="#b20600" stroke-width="5" points="377.38,-183.32 373,-173.32 368.63,-183.32 377.38,-183.32"/>
</a>
</g>
<g id="a_edge15&#45;label"><a xlink:title="strings.(*Builder).grow &#45;&gt; internal/bytealg.MakeNoZero (3658.89kB)">
<text text-anchor="middle" x="414" y="-194.8" font-family="Times,serif" font-size="14.00"> 3658.89kB</text>
</a>
</g>
</g>
<!-- N15&#45;&gt;N13 -->
<g id="edge16" class="edge">
<title>N15&#45;&gt;N13</title>
<g id="a_edge16"><a xlink:title="strings.Repeat &#45;&gt; strings.(*Builder).Grow (3658.89kB)">
<path fill="none" stroke="#b20600" stroke-width="5" d="M373,-417.94C373,-405.54 373,-388.38 373,-373.51"/>
<polygon fill="#b20600" stroke="#b20600" stroke-width="5" points="377.38,-373.19 373,-363.19 368.63,-373.19 377.38,-373.19"/>
</a>
</g>
<g id="a_edge16&#45;label"><a xlink:title="strings.Repeat &#45;&gt; strings.(*Builder).Grow (3658.89kB)">
<text text-anchor="middle" x="414" y="-384.8" font-family="Times,serif" font-size="14.00"> 3658.89kB</text>
</a>
</g>
</g>
</g>
</svg>
